<svg aria-hidden="true" style="position: absolute; width: 0; height: 0; overflow: hidden;" version="1.1"
  xmlns="http://www.w3.org/2000/svg" xmlns:xlink="http://www.w3.org/1999/xlink">
  <defs>
    <symbol id="back-top" viewBox="0 0 32 32">
      <path d="M1.087 21.73l14.399-14.399 15.377 15.377-1.543 1.543-13.759-13.759-12.856 12.857-1.619-1.619z"></path>
    </symbol>
    <symbol id="burger-open" viewBox="0 0 32 32">
      <path
        d="M32 25.333c0-0.729-0.604-1.333-1.333-1.333h-29.333c-0.729 0-1.333 0.604-1.333 1.333v2.667c0 0.729 0.604 1.333 1.333 1.333h29.333c0.729 0 1.333-0.604 1.333-1.333v-2.667zM32 14.667c0-0.729-0.604-1.333-1.333-1.333h-29.333c-0.729 0-1.333 0.604-1.333 1.333v2.667c0 0.729 0.604 1.333 1.333 1.333h29.333c0.729 0 1.333-0.604 1.333-1.333v-2.667zM32 4c0-0.729-0.604-1.333-1.333-1.333h-29.333c-0.729 0-1.333 0.604-1.333 1.333v2.667c0 0.729 0.604 1.333 1.333 1.333h29.333c0.729 0 1.333-0.604 1.333-1.333v-2.667z">
      </path>
    </symbol>
    <symbol id="facebook" viewBox="0 0 32 32">
      <path
        d="M24.111 0.663c-0.482-0.071-2.143-0.214-4.071-0.214-4.036 0-6.804 2.464-6.804 6.982v3.893h-4.554v5.286h4.554v13.554h5.464v-13.554h4.536l0.696-5.286h-5.232v-3.375c0-1.518 0.411-2.571 2.607-2.571h2.804v-4.714z">
      </path>
    </symbol>
    <symbol id="google" viewBox="0 0 32 32">
      <path
        d="M19.939 16.556c0-0.634-0.066-1.122-0.158-1.61h-9.133v3.326h5.491c-0.224 1.412-1.663 4.171-5.491 4.171-3.3 0-5.992-2.732-5.992-6.111s2.693-6.111 5.992-6.111c1.887 0 3.141 0.805 3.854 1.491l2.627-2.521c-1.689-1.584-3.867-2.534-6.481-2.534-5.346 0-9.675 4.329-9.675 9.675s4.329 9.675 9.675 9.675c5.583 0 9.292-3.92 9.292-9.45zM31.383 14.945h-2.759v-2.759h-2.772v2.759h-2.759v2.772h2.759v2.758h2.772v-2.758h2.759v-2.772z">
      </path>
    </symbol>
    <symbol id="info" viewBox="0 0 32 32">
      <path
        d="M31.692 15.637c0-8.498-6.98-15.387-15.591-15.387s-15.591 6.889-15.591 15.387c0 8.498 6.981 15.387 15.591 15.387s15.591-6.889 15.591-15.387zM30.445 15.637c0 7.818-6.422 14.156-14.344 14.156s-14.344-6.338-14.344-14.156 6.422-14.156 14.344-14.156c7.922 0 14.344 6.338 14.344 14.156zM13.606 12.56h3.742v10.463h1.247v0.615h-4.989v-0.615h1.247v-9.848h-1.247v-0.615zM17.972 9.482c0-1.020-0.838-1.846-1.871-1.846s-1.871 0.827-1.871 1.846 0.838 1.847 1.871 1.847c1.033 0 1.871-0.827 1.871-1.847z">
      </path>
    </symbol>
    <symbol id="pri" viewBox="0 0 32 32">
      <path
        d="M30.014 15.476c0-8.045-6.527-14.571-14.571-14.571s-14.571 6.527-14.571 14.571c0 5.977 3.586 11.099 8.728 13.357-0.038-1.025-0.019-2.258 0.247-3.358 0 0 0.285-1.176 1.878-7.931-0.474-0.93-0.474-2.315-0.474-2.315 0-2.163 1.252-3.776 2.808-3.776 1.328 0 1.973 1.006 1.973 2.201 0 1.328-0.854 3.32-1.29 5.161-0.361 1.556 0.778 2.808 2.296 2.808 2.77 0 4.63-3.548 4.63-7.741 0-3.206-2.163-5.597-6.072-5.597-4.421 0-7.172 3.301-7.172 6.982 0 1.271 0.379 2.163 0.968 2.865 0.266 0.323 0.304 0.436 0.209 0.816-0.076 0.266-0.228 0.911-0.304 1.157-0.095 0.379-0.398 0.512-0.721 0.379-2.030-0.835-2.979-3.074-2.979-5.578 0-4.136 3.491-9.107 10.397-9.107 5.578 0 9.24 4.041 9.24 8.348 0 5.73-3.188 9.999-7.874 9.999-1.575 0-3.055-0.854-3.548-1.821-0.854 3.358-1.025 4.003-1.025 4.003-0.304 1.119-0.93 2.239-1.48 3.112 1.328 0.398 2.694 0.607 4.136 0.607 8.045 0 14.571-6.527 14.571-14.572z">
      </path>
    </symbol>
    <symbol id="search" viewBox="0 0 32 32">
      <path
        d="M21.516 4.258c-4.687-4.687-12.337-4.637-17.086 0.113s-4.8 12.399-0.113 17.086c4.347 4.347 11.244 4.619 16.010 0.846l9.284 9.284 2.205-2.205-9.305-9.305c3.616-4.758 3.295-11.529-0.995-15.818zM20.634 5.14c4.206 4.206 4.161 11.071-0.101 15.334s-11.127 4.308-15.334 0.101c-4.206-4.206-4.161-11.071 0.101-15.334s11.127-4.307 15.334-0.101z">
      </path>
    </symbol>
    <symbol id="twitter" viewBox="0 0 32 32">
      <path
        d="M31.89 7.217c-1.101 0.474-2.296 0.816-3.529 0.949 1.271-0.759 2.239-1.954 2.694-3.377-1.176 0.702-2.505 1.214-3.89 1.48-1.119-1.195-2.713-1.935-4.478-1.935-3.396 0-6.128 2.751-6.128 6.128 0 0.474 0.057 0.949 0.152 1.404-5.085-0.266-9.619-2.694-12.636-6.413-0.531 0.911-0.835 1.954-0.835 3.093 0 2.125 1.081 4.003 2.732 5.104-1.006-0.038-1.954-0.323-2.77-0.778 0 0.019 0 0.057 0 0.076 0 2.979 2.106 5.445 4.914 6.015-0.512 0.133-1.063 0.209-1.613 0.209-0.398 0-0.778-0.038-1.157-0.095 0.778 2.429 3.036 4.193 5.73 4.25-2.106 1.651-4.743 2.618-7.608 2.618-0.512 0-0.987-0.019-1.48-0.076 2.713 1.746 5.939 2.751 9.411 2.751 11.27 0 17.436-9.335 17.436-17.436 0-0.266 0-0.531-0.019-0.797 1.195-0.873 2.239-1.954 3.074-3.169z">
      </path>
    </symbol>

    <symbol id="testimonial" viewBox="0 0 38 32">
      <path
        d="M17.27 4.656c0-2.384-1.934-4.317-4.317-4.317h-8.635c-2.384 0-4.317 1.934-4.317 4.317v8.635c0 2.384 1.934 4.317 4.317 4.317h5.037c1.192 0 2.159 0.967 2.159 2.159v0.72c0 3.171-2.586 5.757-5.757 5.757h-1.439c-0.787 0-1.439 0.652-1.439 1.439v2.878c0 0.787 0.652 1.439 1.439 1.439h1.439c6.341 0 11.513-5.172 11.513-11.513v-15.831zM37.418 4.656c0-2.384-1.934-4.317-4.317-4.317h-8.635c-2.384 0-4.317 1.934-4.317 4.317v8.635c0 2.384 1.934 4.317 4.317 4.317h5.037c1.192 0 2.159 0.967 2.159 2.159v0.72c0 3.171-2.586 5.757-5.757 5.757h-1.439c-0.787 0-1.439 0.652-1.439 1.439v2.878c0 0.787 0.652 1.439 1.439 1.439h1.439c6.341 0 11.513-5.172 11.513-11.513v-15.831z">
      </path>
    </symbol>
  </defs>
</svg>